<svg xmlns="http://www.w3.org/2000/svg" width="25" height="25" viewBox="0 0 25 25" fill="none">
    <path
        d="M0.748047 12.6533C0.748047 12.2137 0.905753 11.8361 1.22117 11.5207C1.53658 11.1957 1.91412 11.0332 2.35378 11.0332H11.1423V2.25906C11.1423 1.81939 11.3 1.44185 11.6154 1.12644C11.9308 0.811026 12.3084 0.65332 12.748 0.65332C13.1973 0.65332 13.5796 0.811026 13.895 1.12644C14.2104 1.44185 14.3681 1.81939 14.3681 2.25906V11.0332H23.1423C23.582 11.0332 23.9595 11.1957 24.2749 11.5207C24.5903 11.8361 24.748 12.2137 24.748 12.6533C24.748 13.1025 24.5903 13.4849 24.2749 13.8003C23.9595 14.1061 23.582 14.2591 23.1423 14.2591H14.3681V23.0619C14.3681 23.492 14.2104 23.8648 13.895 24.1802C13.5796 24.4956 13.1973 24.6533 12.748 24.6533C12.3084 24.6533 11.9308 24.4956 11.6154 24.1802C11.3 23.8648 11.1423 23.492 11.1423 23.0619V14.2591H2.35378C1.91412 14.2591 1.53658 14.1061 1.22117 13.8003C0.905753 13.4849 0.748047 13.1025 0.748047 12.6533Z"
        fill="white" />
</svg>