<svg xmlns="http://www.w3.org/2000/svg" width="15" height="19" viewBox="0 0 15 19" fill="none">
    <path
        d="M7.82763 8.69046C8.26948 8.69046 8.64763 8.53311 8.96208 8.21839C9.27652 7.90368 9.43374 7.52539 9.43374 7.08354C9.43374 6.64169 9.2757 6.26354 8.95963 5.9491C8.64356 5.63466 8.26364 5.47743 7.81989 5.47743C7.37614 5.47743 6.99867 5.63547 6.68749 5.95154C6.3763 6.26762 6.22071 6.64753 6.22071 7.09128C6.22071 7.53504 6.37807 7.91251 6.69278 8.22369C7.0075 8.53487 7.38578 8.69046 7.82763 8.69046ZM7.82234 18.04C5.47209 15.9354 3.70584 13.986 2.52359 12.1918C1.3412 10.3976 0.75 8.76585 0.75 7.29645C0.75 5.19029 1.43655 3.44768 2.80964 2.06861C4.1826 0.689535 5.8535 0 7.82234 0C9.79117 0 11.4621 0.689535 12.835 2.06861C14.2081 3.44768 14.8947 5.19029 14.8947 7.29645C14.8947 8.76585 14.3035 10.3976 13.1211 12.1918C11.9388 13.986 10.1726 15.9354 7.82234 18.04Z"
        fill="currentColor" />
</svg>