<svg xmlns="http://www.w3.org/2000/svg" width="16" height="17" viewBox="0 0 16 17" fill="none">
    <g clip-path="url(#clip0_270_3453)">
        <path fill-rule="evenodd" clip-rule="evenodd"
            d="M1.23457 8.01781C1.23457 11.0162 3.63346 13.4469 6.59264 13.4469C9.55182 13.4469 11.9507 11.0162 11.9507 8.01781C11.9507 5.01942 9.55182 2.58874 6.59264 2.58874C3.63346 2.58874 1.23457 5.01942 1.23457 8.01781ZM6.59264 14.6919C2.95486 14.6919 0.00585938 11.7038 0.00585938 8.01781C0.00585938 4.33183 2.95486 1.34375 6.59264 1.34375C10.2304 1.34375 13.1794 4.33183 13.1794 8.01781C13.1794 9.49036 12.7088 10.8515 11.9115 11.9553L15.185 14.6175C15.4496 14.8327 15.492 15.2244 15.2795 15.4926C15.0671 15.7607 14.6805 15.8036 14.4159 15.5884L11.1177 12.9062C11.1105 12.9002 11.1034 12.8941 11.0964 12.8879C9.91852 14.0067 8.33453 14.6919 6.59264 14.6919Z"
            fill="#3D4767" />
    </g>
    <defs>
        <clipPath id="clip0_270_3453">
            <rect width="15.409" height="16" fill="white" transform="translate(0.00585938 0.712891)" />
        </clipPath>
    </defs>
</svg>