<svg xmlns="http://www.w3.org/2000/svg" width="16" height="16" viewBox="0 0 16 16" fill="none">
    <path d="M12.8914 10.3344L12.8852 3.79129C12.8852 3.60484 12.831 3.45308 12.7227 3.33601C12.6143 3.21894 12.4664 3.1604 12.2789 3.1604H5.99141C5.81641 3.1604 5.67474 3.22111 5.56641 3.34251C5.45807 3.45959 5.40391 3.59617 5.40391 3.75227C5.40391 3.90837 5.46016 4.04495 5.57266 4.16203C5.68932 4.27476 5.82057 4.33113 5.96641 4.33113H8.14141L11.1914 4.22707L10.0289 5.28723L3.83516 11.7458C3.71849 11.8672 3.66016 12.0038 3.66016 12.1555C3.66016 12.2596 3.68724 12.3593 3.74141 12.4547C3.79557 12.5458 3.86641 12.6195 3.95391 12.6758C4.04141 12.7322 4.13724 12.7604 4.24141 12.7604C4.39141 12.7604 4.52266 12.7019 4.63516 12.5848L10.8414 6.13276L11.8727 4.9165L11.7602 7.9539V10.3604C11.7602 10.5122 11.8143 10.6487 11.9227 10.7702C12.0352 10.8916 12.1685 10.9523 12.3227 10.9523C12.4727 10.9523 12.6039 10.8937 12.7164 10.7767C12.8331 10.6596 12.8914 10.5122 12.8914 10.3344Z" fill="#9742FB"/>
    </svg>