<svg width="12" height="12" viewBox="0 0 12 12" fill="none" xmlns="http://www.w3.org/2000/svg">
<path d="M3.47065 11.5405V10.8488H5.62579V8.25195C5.0165 8.14286 4.48326 7.88811 4.02607 7.48767C3.56888 7.08724 3.25425 6.59081 3.0822 5.99837C2.35051 5.91234 1.72681 5.61235 1.21109 5.0984C0.695364 4.58444 0.4375 3.96473 0.4375 3.23926V2.54749C0.4375 2.36212 0.506452 2.20049 0.644357 2.06257C0.782274 1.92467 0.943912 1.85571 1.12927 1.85571H2.96513V0.472168H8.97823V1.85571H10.8141C10.9994 1.85571 11.1611 1.92467 11.299 2.06257C11.4369 2.20049 11.5059 2.36212 11.5059 2.54749V3.23926C11.5059 3.96473 11.248 4.58444 10.7323 5.0984C10.2166 5.61235 9.59285 5.91234 8.86116 5.99837C8.68911 6.59081 8.37448 7.08724 7.91729 7.48767C7.4601 7.88811 6.92686 8.14286 6.31757 8.25195V10.8488H8.47271V11.5405H3.47065ZM2.96513 5.25603V2.54749H1.12927V3.23926C1.12927 3.76607 1.30487 4.2186 1.65607 4.59686C2.00729 4.97512 2.44364 5.19485 2.96513 5.25603ZM5.97168 7.57614C6.61024 7.57614 7.15124 7.35442 7.59468 6.91098C8.03813 6.46753 8.25986 5.92653 8.25986 5.28798V1.16394H3.6835V5.28798C3.6835 5.92653 3.90523 6.46753 4.34868 6.91098C4.79212 7.35442 5.33312 7.57614 5.97168 7.57614ZM8.97823 5.25603C9.49972 5.19485 9.93607 4.97512 10.2873 4.59686C10.6385 4.2186 10.8141 3.76607 10.8141 3.23926V2.54749H8.97823V5.25603Z" fill="#4F4F4F"/>
</svg>
