<svg width="29" height="28" viewBox="0 0 29 28" fill="none" xmlns="http://www.w3.org/2000/svg">
<path d="M17.8594 21.2886L2.6084 27.6562C2.22656 27.8135 1.86344 27.8547 1.51904 27.7798C1.17464 27.7049 0.886393 27.5477 0.654297 27.3081C0.422201 27.0685 0.272461 26.7728 0.205078 26.4209C0.145182 26.0765 0.201335 25.7171 0.373535 25.3428L7.08936 10.4399C7.33643 9.8859 7.70329 9.53402 8.18994 9.38428C8.68408 9.23454 9.24186 9.24202 9.86328 9.40674C10.4922 9.56396 11.1436 9.82601 11.8174 10.1929C12.4912 10.5597 13.1426 10.9827 13.7715 11.4619C14.4004 11.9411 14.9582 12.424 15.4448 12.9106C15.924 13.3898 16.4032 13.9476 16.8823 14.584C17.369 15.2204 17.792 15.8792 18.1514 16.5605C18.5182 17.2344 18.7803 17.8857 18.9375 18.5146C19.0947 19.1436 19.0985 19.7013 18.9487 20.188C18.799 20.6746 18.4359 21.0415 17.8594 21.2886ZM11.3794 16.9648C12.2853 17.8783 13.1613 18.6082 14.0073 19.1548C14.8608 19.7013 15.6058 20.0532 16.2422 20.2104C16.8861 20.3602 17.3503 20.2928 17.6348 20.0083C17.9043 19.7388 17.9642 19.2858 17.8145 18.6494C17.6647 18.0055 17.3128 17.2568 16.7588 16.4033C16.2122 15.5498 15.486 14.6738 14.5801 13.7754C13.6742 12.8695 12.7944 12.1432 11.9409 11.5967C11.0949 11.0426 10.3499 10.687 9.70605 10.5298C9.06966 10.3726 8.61296 10.4325 8.33594 10.7095C8.05892 10.994 7.99528 11.4582 8.14502 12.1021C8.30225 12.7384 8.65413 13.4834 9.20068 14.3369C9.74723 15.1904 10.4735 16.0664 11.3794 16.9648ZM10.1216 2.83691C9.8221 2.83691 9.57129 2.73584 9.36914 2.53369C9.16699 2.32406 9.06592 2.07324 9.06592 1.78125C9.06592 1.48926 9.16699 1.24219 9.36914 1.04004C9.57129 0.837891 9.8221 0.736816 10.1216 0.736816C10.4136 0.736816 10.6606 0.837891 10.8628 1.04004C11.0724 1.24219 11.1772 1.48926 11.1772 1.78125C11.1772 2.07324 11.0724 2.32406 10.8628 2.53369C10.6606 2.73584 10.4136 2.83691 10.1216 2.83691ZM11.4243 5.08301C11.6714 6.41569 11.7949 7.74463 11.7949 9.06982C11.7949 10.3875 11.6639 11.7314 11.4019 13.1016C11.3719 13.2663 11.3008 13.4048 11.1885 13.5171C11.0762 13.6294 10.9377 13.6855 10.7729 13.6855C10.6232 13.6706 10.4847 13.6069 10.3574 13.4946C10.2301 13.3748 10.1852 13.2288 10.2227 13.0566C10.4772 11.724 10.6045 10.3913 10.6045 9.05859C10.6045 7.72591 10.481 6.42318 10.2339 5.15039C10.1965 4.96322 10.2376 4.81348 10.3574 4.70117C10.4847 4.58138 10.6307 4.514 10.7954 4.49902C10.9601 4.49902 11.0986 4.55518 11.2109 4.66748C11.3232 4.77979 11.3944 4.91829 11.4243 5.08301ZM16.9722 4.74609C16.6128 4.74609 16.2871 4.65999 15.9951 4.48779C15.7106 4.31559 15.4785 4.08724 15.2988 3.80273C15.1266 3.51074 15.0405 3.18506 15.0405 2.82568C15.0405 2.28662 15.2277 1.83366 15.6021 1.4668C15.9764 1.09245 16.4331 0.905273 16.9722 0.905273C17.5037 0.905273 17.9567 1.09245 18.3311 1.4668C18.7054 1.83366 18.8926 2.28662 18.8926 2.82568C18.8926 3.18506 18.8065 3.51074 18.6343 3.80273C18.4621 4.08724 18.23 4.31559 17.938 4.48779C17.6535 4.65999 17.3315 4.74609 16.9722 4.74609ZM14.8608 8.23877C14.6362 8.23877 14.4416 8.16016 14.2769 8.00293C14.1196 7.83822 14.041 7.64355 14.041 7.41895C14.041 7.19434 14.1196 7.00342 14.2769 6.84619C14.4416 6.68148 14.6362 6.59912 14.8608 6.59912C15.0929 6.59912 15.2876 6.68148 15.4448 6.84619C15.6021 7.00342 15.6807 7.19434 15.6807 7.41895C15.6807 7.64355 15.6021 7.83822 15.4448 8.00293C15.2876 8.16016 15.0929 8.23877 14.8608 8.23877ZM26.0015 3.46582C25.7769 3.46582 25.5859 3.38721 25.4287 3.22998C25.2715 3.07275 25.1929 2.88184 25.1929 2.65723C25.1929 2.42513 25.2715 2.23047 25.4287 2.07324C25.5859 1.90853 25.7769 1.82617 26.0015 1.82617C26.2261 1.82617 26.417 1.90853 26.5742 2.07324C26.7314 2.23047 26.8101 2.42513 26.8101 2.65723C26.8101 2.88184 26.7314 3.07275 26.5742 3.22998C26.417 3.38721 26.2261 3.46582 26.0015 3.46582ZM22.9243 4.4541C23.0441 4.3418 23.1864 4.28564 23.3511 4.28564C23.5233 4.28564 23.6693 4.3418 23.7891 4.4541C23.9089 4.57389 23.9688 4.71989 23.9688 4.89209C23.9688 5.06429 23.9089 5.21029 23.7891 5.33008L21.7227 7.38525C21.6029 7.51253 21.4569 7.57617 21.2847 7.57617C21.12 7.56868 20.974 7.50505 20.8467 7.38525C20.7344 7.27295 20.6745 7.13444 20.667 6.96973C20.667 6.79753 20.7269 6.65153 20.8467 6.53174L22.9243 4.4541ZM18.814 8.58691C18.9263 8.47461 19.0648 8.41846 19.2295 8.41846C19.4017 8.41846 19.5477 8.47461 19.6675 8.58691C19.7723 8.70671 19.8247 8.84896 19.8247 9.01367C19.8322 9.17839 19.7798 9.32064 19.6675 9.44043L14.0298 15.0894C13.91 15.2091 13.764 15.269 13.5918 15.269C13.4271 15.269 13.2848 15.2091 13.165 15.0894C13.0452 14.9696 12.9854 14.8236 12.9854 14.6514C12.9854 14.4792 13.0452 14.3332 13.165 14.2134L18.814 8.58691ZM27.0122 13.4048C26.7127 13.4048 26.4619 13.3037 26.2598 13.1016C26.0576 12.8919 25.9565 12.6374 25.9565 12.3379C25.9565 12.0459 26.0576 11.7988 26.2598 11.5967C26.4619 11.387 26.7127 11.2822 27.0122 11.2822C27.3117 11.2822 27.5625 11.387 27.7646 11.5967C27.9743 11.7988 28.0791 12.0459 28.0791 12.3379C28.0791 12.6374 27.9743 12.8919 27.7646 13.1016C27.5625 13.3037 27.3117 13.4048 27.0122 13.4048ZM22.2505 13.854C21.8088 13.854 21.4344 13.7043 21.1274 13.4048C20.8205 13.0978 20.667 12.7197 20.667 12.2705C20.667 11.8213 20.8205 11.4432 21.1274 11.1362C21.4344 10.8218 21.8088 10.6646 22.2505 10.6646C22.6997 10.6646 23.0815 10.8218 23.396 11.1362C23.7104 11.4432 23.8677 11.8213 23.8677 12.2705C23.8677 12.7197 23.7104 13.0978 23.396 13.4048C23.0815 13.7043 22.6997 13.854 22.2505 13.854ZM26.5967 19.1099C26.2972 19.1099 26.0464 19.0088 25.8442 18.8066C25.6421 18.597 25.541 18.3462 25.541 18.0542C25.541 17.7622 25.6421 17.5151 25.8442 17.313C26.0464 17.1034 26.2972 16.9985 26.5967 16.9985C26.8887 16.9985 27.1357 17.1034 27.3379 17.313C27.5475 17.5151 27.6523 17.7622 27.6523 18.0542C27.6523 18.3462 27.5475 18.597 27.3379 18.8066C27.1357 19.0088 26.8887 19.1099 26.5967 19.1099ZM23.2275 16.8188C23.3923 16.8488 23.5308 16.9199 23.6431 17.0322C23.7554 17.1445 23.8078 17.283 23.8003 17.4478C23.8003 17.6125 23.7367 17.7585 23.6094 17.8857C23.4896 18.0055 23.3436 18.0467 23.1714 18.0093C21.8836 17.7622 20.5734 17.6424 19.2407 17.6499C17.908 17.6499 16.5791 17.7772 15.2539 18.0317C15.0742 18.0692 14.9245 18.0243 14.8047 17.897C14.6924 17.7697 14.6362 17.6237 14.6362 17.459C14.6213 17.3018 14.6699 17.1707 14.7822 17.0659C14.902 16.9536 15.0405 16.8787 15.1978 16.8413C16.5828 16.5793 17.9342 16.4482 19.252 16.4482C20.5697 16.4482 21.8949 16.5718 23.2275 16.8188Z" fill="white"/>
</svg>
