<svg xmlns="http://www.w3.org/2000/svg" width="15" height="19" viewBox="0 0 15 19" fill="none">
    <path
        d="M7.39611 8.99703C7.84057 8.99703 8.21898 8.83884 8.53135 8.52244C8.8439 8.20605 9.00018 7.82563 9.00018 7.38117C9.00018 6.9369 8.84155 6.55848 8.52428 6.24593C8.20719 5.93356 7.82598 5.77737 7.38065 5.77737C6.93532 5.77737 6.55726 5.93591 6.24646 6.25301C5.93565 6.5701 5.78025 6.95131 5.78025 7.39664C5.78025 7.84196 5.93854 8.22003 6.2551 8.53083C6.5715 8.84163 6.95183 8.99703 7.39611 8.99703ZM7.38773 16.7668C9.324 15.0472 10.8328 13.3781 11.914 11.7597C12.9953 10.1414 13.5359 8.71689 13.5359 7.48626C13.5359 5.6929 12.9564 4.20178 11.7974 3.0129C10.6384 1.82402 9.1679 1.22958 7.38589 1.22958C5.60371 1.22958 4.13373 1.82402 2.97595 3.0129C1.81834 4.20178 1.23954 5.6929 1.23954 7.48626C1.23954 8.71689 1.78017 10.1414 2.86143 11.7597C3.94269 13.3781 5.45145 15.0472 7.38773 16.7668ZM7.38773 18.4C4.91633 16.2661 3.06715 14.2975 1.84018 12.4942C0.613394 10.6911 0 9.02333 0 7.49098C0 5.44045 0.687557 3.67932 2.06267 2.20759C3.43761 0.735865 5.20835 0 7.37488 0C9.54124 0 11.3163 0.735865 12.6999 2.20759C14.0836 3.67932 14.7754 5.44045 14.7754 7.49098C14.7754 9.02333 14.1664 10.6872 12.9484 12.4827C11.7303 14.2783 9.87677 16.2508 7.38773 18.4Z"
        fill="#3D4767" />
</svg>