<svg xmlns="http://www.w3.org/2000/svg" width="15" height="19" viewBox="0 0 15 19" fill="none">
  <path
    d="M7.07763 8.69046C7.51948 8.69046 7.89763 8.53311 8.21208 8.21839C8.52652 7.90368 8.68374 7.52539 8.68374 7.08354C8.68374 6.64169 8.5257 6.26354 8.20963 5.9491C7.89356 5.63466 7.51364 5.47743 7.06989 5.47743C6.62614 5.47743 6.24867 5.63547 5.93749 5.95154C5.6263 6.26762 5.47071 6.64753 5.47071 7.09128C5.47071 7.53504 5.62807 7.91251 5.94278 8.22369C6.2575 8.53487 6.63578 8.69046 7.07763 8.69046ZM7.07234 18.04C4.72209 15.9354 2.95584 13.986 1.77359 12.1918C0.591195 10.3976 0 8.76585 0 7.29645C0 5.19029 0.686547 3.44768 2.05964 2.06861C3.4326 0.689535 5.1035 0 7.07234 0C9.04117 0 10.7121 0.689535 12.085 2.06861C13.4581 3.44768 14.1447 5.19029 14.1447 7.29645C14.1447 8.76585 13.5535 10.3976 12.3711 12.1918C11.1888 13.986 9.42258 15.9354 7.07234 18.04Z"
    fill="#7700D5" />
</svg>