<svg xmlns="http://www.w3.org/2000/svg" width="12" height="12" viewBox="0 0 12 12" fill="none">
    <path
        d="M3.2711 11.9023C3.12958 11.9023 3.0171 11.8534 2.93364 11.7554C2.85381 11.661 2.8139 11.5322 2.8139 11.3689V9.89937H2.46011C1.97026 9.89937 1.55297 9.80866 1.20826 9.62723C0.863543 9.4458 0.600472 9.18273 0.419043 8.83802C0.241244 8.4933 0.152344 8.07783 0.152344 7.59161V3.21555C0.152344 2.7257 0.241244 2.31023 0.419043 1.96914C0.600472 1.62443 0.863543 1.36136 1.20826 1.17993C1.55297 0.994872 1.97026 0.902344 2.46011 0.902344H9.65556C10.1454 0.902344 10.5627 0.994872 10.9074 1.17993C11.2521 1.36136 11.5134 1.62443 11.6912 1.96914C11.8726 2.31386 11.9633 2.72933 11.9633 3.21555V7.59161C11.9633 8.07783 11.8726 8.4933 11.6912 8.83802C11.5134 9.1791 11.2521 9.44217 10.9074 9.62723C10.5627 9.80866 10.1454 9.89937 9.65556 9.89937H5.78025L3.86981 11.5812C3.75007 11.6864 3.64665 11.7663 3.55957 11.8207C3.47248 11.8751 3.37633 11.9023 3.2711 11.9023ZM3.43983 11.1458L5.23052 9.44762C5.32124 9.36053 5.40469 9.30429 5.48089 9.27889C5.55709 9.24986 5.65688 9.23535 5.78025 9.23535H9.65012C10.1835 9.23535 10.5899 9.09202 10.8693 8.80536C11.1523 8.5187 11.2939 8.11231 11.2939 7.58616V3.21555C11.2939 2.69304 11.1523 2.29027 10.8693 2.00724C10.5899 1.72059 10.1835 1.57726 9.65012 1.57726H2.46555C1.92853 1.57726 1.52031 1.72059 1.24091 2.00724C0.961514 2.29027 0.821814 2.69304 0.821814 3.21555V7.58616C0.821814 8.11231 0.961514 8.5187 1.24091 8.80536C1.52031 9.09202 1.92853 9.23535 2.46555 9.23535H3.12414C3.23663 9.23535 3.31645 9.25893 3.36363 9.3061C3.41443 9.35328 3.43983 9.4331 3.43983 9.54559V11.1458ZM3.16768 3.82515C3.09511 3.82515 3.03343 3.79975 2.98263 3.74895C2.93545 3.69815 2.91187 3.63828 2.91187 3.56934C2.91187 3.49677 2.93545 3.4369 2.98263 3.38973C3.03343 3.34255 3.09511 3.31897 3.16768 3.31897H8.7847C8.85728 3.31897 8.91715 3.34255 8.96432 3.38973C9.01512 3.4369 9.04052 3.49677 9.04052 3.56934C9.04052 3.63828 9.01512 3.69815 8.96432 3.74895C8.91715 3.79975 8.85728 3.82515 8.7847 3.82515H3.16768ZM3.16768 5.59408C3.09511 5.59408 3.03343 5.57049 2.98263 5.52332C2.93545 5.47252 2.91187 5.41084 2.91187 5.33827C2.91187 5.26932 2.93545 5.20945 2.98263 5.15865C3.03343 5.10785 3.09511 5.08245 3.16768 5.08245H8.7847C8.85728 5.08245 8.91715 5.10785 8.96432 5.15865C9.01512 5.20945 9.04052 5.26932 9.04052 5.33827C9.04052 5.41084 9.01512 5.47252 8.96432 5.52332C8.91715 5.57049 8.85728 5.59408 8.7847 5.59408H3.16768ZM3.16768 7.36845C3.09511 7.36845 3.03343 7.34486 2.98263 7.29769C2.93545 7.24689 2.91187 7.18702 2.91187 7.11808C2.91187 7.04551 2.93545 6.98564 2.98263 6.93846C3.03343 6.88766 3.09511 6.86226 3.16768 6.86226H6.84705C6.91962 6.86226 6.97949 6.88766 7.02666 6.93846C7.07746 6.98564 7.10286 7.04551 7.10286 7.11808C7.10286 7.18702 7.07746 7.24689 7.02666 7.29769C6.97949 7.34486 6.91962 7.36845 6.84705 7.36845H3.16768Z"
        fill="#4F4F4F" />
</svg>