<svg xmlns="http://www.w3.org/2000/svg" width="24" height="22" viewBox="0 0 24 22" fill="none">
    <path
        d="M2.70483 3.96242C2.75903 3.70949 2.88249 3.56496 3.0752 3.52882C3.27393 3.49269 3.45158 3.56194 3.60815 3.73659C4.01164 4.20631 4.45728 4.5556 4.94507 4.78444C5.43888 5.01328 5.95378 5.16383 6.48975 5.2361C7.02572 5.30836 7.5647 5.3445 8.10669 5.3445C8.54028 5.3445 8.99797 5.32041 9.47974 5.27223C9.96151 5.22405 10.4463 5.17588 10.9341 5.1277C11.4279 5.07952 11.9067 5.05543 12.3704 5.05543C13.7976 5.05543 15.0562 5.28729 16.1462 5.75099C17.2362 6.20867 18.0884 6.90724 18.7026 7.84669C19.3169 8.78615 19.624 9.97552 19.624 11.4148C19.624 11.6256 19.618 11.8333 19.606 12.0381C19.5939 12.2368 19.5789 12.4055 19.5608 12.544C19.5367 12.6885 19.4584 12.7818 19.3259 12.824C19.1934 12.8661 19.064 12.833 18.9375 12.7246C18.2811 12.1164 17.6277 11.6647 16.9773 11.3696C16.3269 11.0685 15.6825 10.8548 15.0442 10.7283C14.4058 10.6018 13.7795 10.5145 13.1653 10.4663C12.551 10.4121 11.9488 10.3399 11.3586 10.2495C10.7745 10.1592 10.2054 9.9966 9.65137 9.76173C9.10335 9.52085 8.57642 9.14747 8.07056 8.64162C7.93205 8.49708 7.80257 8.46697 7.68213 8.55128C7.56169 8.62957 7.5376 8.747 7.60986 8.90358C7.89893 9.54795 8.28735 10.0508 8.77515 10.4121C9.26896 10.7674 9.83203 11.0384 10.4644 11.2251C11.0967 11.4118 11.7681 11.5684 12.4788 11.6948C13.1954 11.8153 13.9271 11.9628 14.6738 12.1375C15.4206 12.3061 16.1553 12.556 16.8779 12.8872C17.6006 13.2124 18.2841 13.6731 18.9285 14.2693C19.1573 14.4861 19.4193 14.7691 19.7144 15.1184C20.0094 15.4677 20.2955 15.8501 20.5725 16.2656C20.8495 16.6751 21.0784 17.0816 21.259 17.4851C21.4397 17.8826 21.53 18.2409 21.53 18.5601C21.53 18.9515 21.4186 19.2707 21.1958 19.5176C20.979 19.7705 20.711 19.897 20.3918 19.897C20.2413 19.897 20.0998 19.8548 19.9673 19.7705C19.8348 19.6862 19.7324 19.5387 19.6602 19.3279C19.4494 18.6655 19.2476 18.0813 19.0549 17.5755C18.8622 17.0636 18.6424 16.5999 18.3955 16.1843C18.1486 15.7688 17.8415 15.3593 17.4741 14.9558L18.3774 14.8565C18.2751 15.0973 18.1095 15.3593 17.8806 15.6423C17.6578 15.9194 17.3748 16.1964 17.0315 16.4734C16.6882 16.7504 16.2847 17.0034 15.821 17.2322C15.3634 17.461 14.8424 17.6447 14.2583 17.7832C13.6802 17.9217 13.0448 17.991 12.3523 17.991C10.8588 17.991 9.50382 17.729 8.28735 17.2051C7.0769 16.6751 6.03507 15.9194 5.16187 14.9378C4.29468 13.9562 3.62622 12.7848 3.15649 11.4238C2.69279 10.0628 2.46094 8.54225 2.46094 6.86207C2.46094 6.48268 2.479 6.025 2.51514 5.48903C2.55729 4.95306 2.62052 4.44419 2.70483 3.96242Z"
        fill="#7700D5" />
</svg>