<svg xmlns="http://www.w3.org/2000/svg" width="15" height="14" viewBox="0 0 15 14" fill="none">
    <path
        d="M1.77344 4.87715C1.77344 4.78107 1.77712 4.63161 1.7845 4.42877C1.79556 4.22594 1.81216 4.01064 1.83428 3.7829C1.86009 3.55159 1.89512 3.35054 1.93937 3.17973C1.97994 3.00892 2.05737 2.89326 2.17168 2.83277C2.28968 2.77227 2.41321 2.75804 2.54227 2.79007C2.67502 2.82209 2.78933 2.89149 2.88521 2.99824C3.19127 3.3363 3.53236 3.58006 3.90848 3.72952C4.2846 3.87542 4.69944 3.94837 5.153 3.94837C5.66556 3.94837 6.1523 3.90745 6.61324 3.8256C7.07786 3.74375 7.53326 3.70283 7.97944 3.70283C8.62106 3.70283 9.21106 3.79535 9.74943 3.9804C10.2878 4.16544 10.7543 4.42877 11.1488 4.77039C11.5434 5.10845 11.8494 5.50879 12.067 5.9714C12.2846 6.43045 12.3933 6.93398 12.3933 7.48199C12.3933 8.05492 12.2846 8.5798 12.067 9.05665C11.8494 9.52993 11.5434 9.94094 11.1488 10.2897C10.7543 10.6384 10.286 10.9089 9.7439 11.101C9.20184 11.2896 8.60631 11.3839 7.95732 11.3839C7.01702 11.3839 6.16705 11.2309 5.40744 10.9249C4.65151 10.6188 4.00067 10.1811 3.45492 9.61178C2.91286 9.03885 2.49618 8.35384 2.20487 7.55672C1.91725 6.75605 1.77344 5.86286 1.77344 4.87715ZM2.42059 4.87715C2.42059 5.7739 2.54781 6.58524 2.80224 7.31118C3.06036 8.03357 3.43095 8.65275 3.91401 9.16874C4.40076 9.68117 4.98338 10.0744 5.66187 10.3484C6.34405 10.6224 7.1092 10.7594 7.95732 10.7594C8.70219 10.7594 9.35856 10.6206 9.92643 10.3431C10.498 10.0655 10.9442 9.68117 11.265 9.19009C11.5895 8.69545 11.7517 8.12609 11.7517 7.48199C11.7517 6.86637 11.5895 6.32191 11.265 5.84863C10.9442 5.37178 10.4998 4.99992 9.93196 4.73303C9.36409 4.46258 8.71325 4.32735 7.97944 4.32735C7.7877 4.32735 7.59226 4.33803 7.39314 4.35938C7.19401 4.38073 6.98383 4.40564 6.76258 4.43411C6.51921 4.46614 6.26293 4.49816 5.99374 4.53019C5.72825 4.55866 5.448 4.57289 5.153 4.57289C4.71788 4.57289 4.2717 4.49816 3.81445 4.3487C3.36089 4.19925 2.96818 3.96794 2.6363 3.65479C2.55887 3.58362 2.51093 3.59607 2.49249 3.69216C2.46668 3.85229 2.44824 4.03377 2.43718 4.23661C2.42612 4.43945 2.42059 4.65296 2.42059 4.87715ZM4.96494 6.11018C4.94282 6.04613 4.9465 5.99453 4.976 5.95538C5.00919 5.91268 5.0516 5.89133 5.10322 5.89133C5.15484 5.89133 5.20463 5.92158 5.25256 5.98207C5.45906 6.23829 5.69506 6.44646 5.96056 6.6066C6.22605 6.76673 6.52474 6.89662 6.85661 6.99625C7.18848 7.09589 7.55723 7.18308 7.96285 7.25781C8.8884 7.41794 9.6683 7.63857 10.3025 7.91969C10.9368 8.19726 11.4549 8.56557 11.8568 9.02462C11.9969 9.18831 12.15 9.38581 12.3159 9.61712C12.4818 9.84486 12.6404 10.0851 12.7916 10.3377C12.9428 10.5904 13.0663 10.8359 13.1622 11.0743C13.2581 11.3128 13.306 11.5263 13.306 11.7149C13.306 11.9355 13.2378 12.1223 13.1013 12.2753C12.9686 12.4284 12.8045 12.5049 12.6091 12.5049C12.5169 12.5049 12.4284 12.48 12.3436 12.4301C12.2624 12.3803 12.2016 12.2931 12.161 12.1686C12.043 11.8127 11.9398 11.4889 11.8513 11.1971C11.7628 10.9017 11.6632 10.6295 11.5526 10.3804C11.442 10.1278 11.2963 9.88934 11.1156 9.66516C10.9165 9.4125 10.7082 9.19365 10.4906 9.00861C10.2767 8.82356 10.0389 8.66521 9.77708 8.53354C9.51896 8.39832 9.22396 8.27733 8.89209 8.17057C8.56022 8.06026 8.17857 7.95528 7.74713 7.85564C7.23826 7.73109 6.79577 7.59409 6.41965 7.44463C6.04352 7.29517 5.73378 7.11369 5.4904 6.90017C5.24703 6.68666 5.07188 6.42333 4.96494 6.11018Z"
        fill="#FFFFFF" />
</svg>