<svg xmlns="http://www.w3.org/2000/svg" width="24" height="22" viewBox="0 0 24 22" fill="none">
    <path
        d="M2.5 6.98786C2.5 6.82526 2.50602 6.57233 2.51807 6.22907C2.53613 5.88581 2.56323 5.52147 2.59937 5.13605C2.64152 4.74461 2.69873 4.40436 2.771 4.1153C2.83724 3.82624 2.9637 3.63052 3.15039 3.52814C3.3431 3.42577 3.54484 3.40168 3.75562 3.45588C3.97241 3.51008 4.1591 3.62751 4.31567 3.80817C4.81551 4.38027 5.37256 4.79279 5.98682 5.04572C6.60107 5.29263 7.27856 5.41608 8.01929 5.41608C8.85636 5.41608 9.65129 5.34683 10.4041 5.20832C11.1628 5.06981 11.9066 5.00055 12.6353 5.00055C13.6831 5.00055 14.6466 5.15713 15.5259 5.47028C16.4051 5.78343 17.1669 6.22907 17.8113 6.80719C18.4556 7.3793 18.9555 8.05679 19.3108 8.83967C19.6661 9.61652 19.8438 10.4687 19.8438 11.3961C19.8438 12.3656 19.6661 13.2539 19.3108 14.0609C18.9555 14.8618 18.4556 15.5574 17.8113 16.1475C17.1669 16.7377 16.4021 17.1954 15.5168 17.5206C14.6316 17.8397 13.659 17.9993 12.5991 17.9993C11.0635 17.9993 9.67537 17.7404 8.43481 17.2225C7.20028 16.7046 6.13737 15.9639 5.24609 15.0003C4.36084 14.0307 3.68034 12.8715 3.20459 11.5225C2.73486 10.1675 2.5 8.65599 2.5 6.98786ZM3.55688 6.98786C3.55688 8.50544 3.76465 9.87848 4.18018 11.107C4.60173 12.3295 5.20695 13.3773 5.99585 14.2506C6.79077 15.1177 7.74227 15.7832 8.85034 16.2469C9.96444 16.7106 11.214 16.9424 12.5991 16.9424C13.8156 16.9424 14.8875 16.7076 15.8149 16.2379C16.7484 15.7681 17.4771 15.1177 18.001 14.2867C18.5309 13.4496 18.7959 12.4861 18.7959 11.3961C18.7959 10.3542 18.5309 9.43285 18.001 8.6319C17.4771 7.82494 16.7514 7.19562 15.824 6.74396C14.8966 6.28628 13.8337 6.05744 12.6353 6.05744C12.3221 6.05744 12.0029 6.07551 11.6777 6.11164C11.3525 6.14777 11.0093 6.18993 10.6479 6.2381C10.2505 6.2923 9.83195 6.3465 9.39233 6.4007C8.95874 6.44888 8.50106 6.47297 8.01929 6.47297C7.30868 6.47297 6.58 6.3465 5.83325 6.09357C5.09253 5.84064 4.45117 5.4492 3.90918 4.91926C3.78271 4.79881 3.70443 4.81989 3.67432 4.98249C3.63216 5.25348 3.60205 5.56061 3.58398 5.90387C3.56592 6.24714 3.55688 6.60846 3.55688 6.98786ZM7.71216 9.07453C7.67603 8.96613 7.68205 8.87881 7.73022 8.81257C7.78442 8.7403 7.85368 8.70417 7.93799 8.70417C8.0223 8.70417 8.1036 8.75536 8.18188 8.85773C8.51912 9.29133 8.90454 9.64362 9.33813 9.91462C9.77173 10.1856 10.2595 10.4054 10.8015 10.574C11.3435 10.7427 11.9457 10.8902 12.6082 11.0167C14.1197 11.2877 15.3934 11.661 16.4292 12.1368C17.465 12.6065 18.3111 13.2298 18.9675 14.0067C19.1964 14.2837 19.4463 14.6179 19.7173 15.0093C19.9883 15.3948 20.2472 15.8013 20.4941 16.2288C20.741 16.6564 20.9428 17.0719 21.0994 17.4754C21.2559 17.8789 21.3342 18.2402 21.3342 18.5594C21.3342 18.9328 21.2228 19.2489 21 19.5079C20.7832 19.7668 20.5152 19.8963 20.196 19.8963C20.0455 19.8963 19.901 19.8542 19.7625 19.7698C19.63 19.6855 19.5306 19.538 19.4644 19.3272C19.2716 18.725 19.103 18.177 18.9585 17.6832C18.814 17.1833 18.6514 16.7226 18.4707 16.3011C18.29 15.8735 18.0522 15.47 17.7571 15.0906C17.4319 14.6631 17.0916 14.2927 16.7363 13.9796C16.387 13.6664 15.9986 13.3984 15.571 13.1756C15.1495 12.9468 14.6677 12.742 14.1257 12.5613C13.5837 12.3747 12.9604 12.197 12.2559 12.0284C11.4248 11.8176 10.7021 11.5858 10.0879 11.3328C9.47363 11.0799 8.96777 10.7728 8.57031 10.4114C8.17285 10.0501 7.8868 9.60448 7.71216 9.07453Z"
        fill="#3D4767" />
</svg>