<svg xmlns="http://www.w3.org/2000/svg" width="23" height="23" viewBox="0 0 23 23" fill="none">
    <path
        d="M2.20483 4.46242C2.25903 4.20949 2.38249 4.06496 2.5752 4.02882C2.77393 3.99269 2.95158 4.06194 3.10815 4.23659C3.51164 4.70631 3.95728 5.0556 4.44507 5.28444C4.93888 5.51328 5.45378 5.66383 5.98975 5.7361C6.52572 5.80836 7.0647 5.8445 7.60669 5.8445C8.04028 5.8445 8.49797 5.82041 8.97974 5.77223C9.46151 5.72405 9.94629 5.67588 10.4341 5.6277C10.9279 5.57952 11.4067 5.55543 11.8704 5.55543C13.2976 5.55543 14.5562 5.78729 15.6462 6.25099C16.7362 6.70867 17.5884 7.40724 18.2026 8.34669C18.8169 9.28615 19.124 10.4755 19.124 11.9148C19.124 12.1256 19.118 12.3333 19.106 12.5381C19.0939 12.7368 19.0789 12.9055 19.0608 13.044C19.0367 13.1885 18.9584 13.2818 18.8259 13.324C18.6934 13.3661 18.564 13.333 18.4375 13.2246C17.7811 12.6164 17.1277 12.1647 16.4773 11.8696C15.8269 11.5685 15.1825 11.3548 14.5442 11.2283C13.9058 11.1018 13.2795 11.0145 12.6653 10.9663C12.051 10.9121 11.4488 10.8399 10.8586 10.7495C10.2745 10.6592 9.7054 10.4966 9.15137 10.2617C8.60335 10.0208 8.07642 9.64747 7.57056 9.14162C7.43205 8.99708 7.30257 8.96697 7.18213 9.05128C7.06169 9.12957 7.0376 9.247 7.10986 9.40358C7.39893 10.0479 7.78735 10.5508 8.27515 10.9121C8.76896 11.2674 9.33203 11.5384 9.96436 11.7251C10.5967 11.9118 11.2681 12.0684 11.9788 12.1948C12.6954 12.3153 13.4271 12.4628 14.1738 12.6375C14.9206 12.8061 15.6553 13.056 16.3779 13.3872C17.1006 13.7124 17.7841 14.1731 18.4285 14.7693C18.6573 14.9861 18.9193 15.2691 19.2144 15.6184C19.5094 15.9677 19.7955 16.3501 20.0725 16.7656C20.3495 17.1751 20.5784 17.5816 20.759 17.9851C20.9397 18.3826 21.03 18.7409 21.03 19.0601C21.03 19.4515 20.9186 19.7707 20.6958 20.0176C20.479 20.2705 20.211 20.397 19.8918 20.397C19.7413 20.397 19.5998 20.3548 19.4673 20.2705C19.3348 20.1862 19.2324 20.0387 19.1602 19.8279C18.9494 19.1655 18.7476 18.5813 18.5549 18.0755C18.3622 17.5636 18.1424 17.0999 17.8955 16.6843C17.6486 16.2688 17.3415 15.8593 16.9741 15.4558L17.8774 15.3565C17.7751 15.5973 17.6095 15.8593 17.3806 16.1423C17.1578 16.4194 16.8748 16.6964 16.5315 16.9734C16.1882 17.2504 15.7847 17.5034 15.321 17.7322C14.8634 17.961 14.3424 18.1447 13.7583 18.2832C13.1802 18.4217 12.5448 18.491 11.8523 18.491C10.3588 18.491 9.00382 18.229 7.78735 17.7051C6.5769 17.1751 5.53507 16.4194 4.66187 15.4378C3.79468 14.4562 3.12622 13.2848 2.65649 11.9238C2.19279 10.5628 1.96094 9.04225 1.96094 7.36207C1.96094 6.98268 1.979 6.525 2.01514 5.98903C2.05729 5.45306 2.12052 4.94419 2.20483 4.46242Z"
        fill="currentColor" />
</svg>