<svg xmlns="http://www.w3.org/2000/svg" width="20" height="14" viewBox="0 0 20 14" fill="none">
    <path
        d="M8.88815 11.9723C8.05907 11.9723 7.64453 11.6889 7.64453 11.122C7.64453 10.7441 7.75829 10.345 7.9858 9.92465C8.21332 9.50047 8.54302 9.10136 8.97491 8.72731C9.41066 8.35326 9.9351 8.05056 10.5482 7.81919C11.1614 7.58396 11.8535 7.46635 12.6248 7.46635C13.396 7.46635 14.0882 7.58396 14.7013 7.81919C15.3145 8.05056 15.837 8.35326 16.2689 8.72731C16.7046 9.10136 17.0362 9.50047 17.2637 9.92465C17.4951 10.345 17.6108 10.7441 17.6108 11.122C17.6108 11.6889 17.1924 11.9723 16.3556 11.9723H8.88815ZM8.70883 11.3013H16.5407C16.6718 11.3013 16.7624 11.282 16.8126 11.2435C16.8666 11.2088 16.8936 11.1432 16.8936 11.0468C16.8936 10.7769 16.7991 10.4742 16.6101 10.1387C16.425 9.80318 16.1493 9.48505 15.783 9.18427C15.4166 8.87963 14.9674 8.62898 14.4352 8.43232C13.9069 8.23565 13.3035 8.13732 12.6248 8.13732C11.9461 8.13732 11.3407 8.23565 10.8085 8.43232C10.2802 8.62898 9.83291 8.87963 9.46657 9.18427C9.10023 9.48505 8.82259 9.80318 8.63364 10.1387C8.44854 10.4742 8.35599 10.7769 8.35599 11.0468C8.35599 11.1432 8.38106 11.2088 8.43119 11.2435C8.48518 11.282 8.57772 11.3013 8.70883 11.3013ZM12.6306 6.67969C12.1832 6.67969 11.7764 6.56015 11.4101 6.32106C11.0437 6.08198 10.7507 5.76192 10.5309 5.36088C10.3149 4.95598 10.207 4.50866 10.207 4.01893C10.2031 3.54462 10.3111 3.1108 10.5309 2.71747C10.7507 2.32414 11.0437 2.00987 11.4101 1.77464C11.7764 1.53556 12.1832 1.41602 12.6306 1.41602C13.0779 1.41602 13.4847 1.53363 13.851 1.76886C14.2212 2.00023 14.5143 2.31258 14.7302 2.7059C14.95 3.09538 15.0599 3.53112 15.0599 4.01315C15.0599 4.50674 14.95 4.95405 14.7302 5.35509C14.5143 5.75613 14.2232 6.07812 13.8568 6.32106C13.4905 6.56015 13.0817 6.67969 12.6306 6.67969ZM12.6306 6.00293C12.9468 6.00293 13.234 5.91424 13.4924 5.73685C13.7546 5.55947 13.9629 5.32039 14.1171 5.01961C14.2714 4.71882 14.3485 4.38334 14.3485 4.01315C14.3485 3.65452 14.2714 3.3306 14.1171 3.04139C13.9629 2.74832 13.7546 2.51695 13.4924 2.34728C13.234 2.17761 12.9468 2.09277 12.6306 2.09277C12.3182 2.09277 12.0309 2.17954 11.7687 2.35306C11.5065 2.52659 11.2983 2.75989 11.144 3.05296C10.9898 3.34217 10.9126 3.66416 10.9126 4.01893C10.9126 4.39298 10.9898 4.73039 11.144 5.03117C11.3021 5.3281 11.5103 5.56525 11.7687 5.74264C12.0309 5.91617 12.3182 6.00293 12.6306 6.00293ZM2.67586 11.9723C2.3288 11.9723 2.06658 11.899 1.8892 11.7525C1.71567 11.6059 1.62891 11.3823 1.62891 11.0815C1.62891 10.6226 1.73688 10.1772 1.95282 9.74534C2.16877 9.31345 2.47148 8.92398 2.86095 8.57692C3.25428 8.22987 3.71317 7.95608 4.23761 7.75556C4.7659 7.55118 5.34047 7.44899 5.96131 7.44899C6.30451 7.44899 6.63421 7.48177 6.95042 7.54733C7.27048 7.60902 7.57512 7.7035 7.86433 7.83075C8.1574 7.95415 8.43312 8.11033 8.69148 8.29928C8.59122 8.36869 8.49867 8.44196 8.41384 8.51908C8.33286 8.5962 8.25766 8.67911 8.18825 8.7678C7.98002 8.62127 7.75829 8.4998 7.52306 8.4034C7.28784 8.30699 7.03911 8.23372 6.77689 8.18359C6.51467 8.13346 6.24281 8.1084 5.96131 8.1084C5.46772 8.1084 4.9992 8.18745 4.55574 8.34555C4.11614 8.50366 3.72473 8.72153 3.38154 8.99917C3.04219 9.27296 2.77612 9.58724 2.58331 9.94201C2.3905 10.2929 2.2941 10.6612 2.2941 11.0468C2.2941 11.1432 2.3153 11.2107 2.35772 11.2492C2.404 11.2917 2.48112 11.3129 2.58909 11.3129H7.05454C7.05454 11.4517 7.0931 11.5809 7.17022 11.7004C7.24735 11.8238 7.33989 11.9144 7.44787 11.9723H2.67586ZM5.97288 6.7491C5.57955 6.7491 5.22286 6.64498 4.90279 6.43675C4.58659 6.22852 4.33401 5.95087 4.14506 5.60382C3.9561 5.2529 3.86163 4.85958 3.86163 4.42383C3.85777 4.01122 3.95032 3.63139 4.13927 3.28433C4.32822 2.93727 4.58273 2.66156 4.90279 2.45718C5.22671 2.24895 5.58341 2.14483 5.97288 2.14483C6.3585 2.14483 6.71134 2.24702 7.0314 2.4514C7.35146 2.65577 7.60597 2.93149 7.79492 3.27855C7.98773 3.62174 8.08413 4.00158 8.08413 4.41804C8.08413 4.85379 7.98966 5.24712 7.80071 5.59803C7.61175 5.94894 7.35725 6.22852 7.03718 6.43675C6.71712 6.64498 6.36235 6.7491 5.97288 6.7491ZM5.97288 6.08391C6.2351 6.08391 6.47611 6.01064 6.69591 5.86411C6.91957 5.71757 7.09503 5.51898 7.22228 5.26833C7.35339 5.01382 7.41894 4.73039 7.41894 4.41804C7.41894 4.12112 7.35339 3.85119 7.22228 3.60825C7.09503 3.36531 6.9215 3.1725 6.7017 3.02982C6.4819 2.88714 6.23896 2.81581 5.97288 2.81581C5.70681 2.81581 5.46387 2.88907 5.24407 3.03561C5.02426 3.17829 4.84881 3.37302 4.7177 3.61982C4.59044 3.86276 4.52682 4.13076 4.52682 4.42383C4.52682 4.73618 4.59044 5.01768 4.7177 5.26833C4.84881 5.51898 5.02426 5.71757 5.24407 5.86411C5.46387 6.01064 5.70681 6.08391 5.97288 6.08391Z"
        fill="#3D4767" />
</svg>