<svg xmlns="http://www.w3.org/2000/svg" width="19" height="20" viewBox="0 0 19 20" fill="none">
    <path
        d="M3.39062 11.6584C3.39062 12.5361 3.5493 13.3568 3.86666 14.1207C4.18868 14.8798 4.63204 15.5487 5.19674 16.1275C5.76145 16.7016 6.41716 17.1499 7.16387 17.4725C7.91526 17.7951 8.72031 17.9564 9.57903 17.9564C10.4331 17.9564 11.2335 17.7951 11.9802 17.4725C12.7316 17.1499 13.3896 16.7016 13.9543 16.1275C14.5237 15.5487 14.9671 14.8798 15.2844 14.1207C15.6018 13.3568 15.7604 12.5361 15.7604 11.6584C15.7604 11.4876 15.7068 11.3476 15.5994 11.2385C15.4921 11.1247 15.3521 11.0677 15.1794 11.0677C15.0114 11.0677 14.8784 11.1247 14.7804 11.2385C14.6824 11.3476 14.6334 11.4876 14.6334 11.6584C14.6334 12.3748 14.5027 13.0461 14.2413 13.6723C13.98 14.2938 13.6183 14.8418 13.1563 15.3162C12.6942 15.7859 12.1575 16.1512 11.5462 16.4122C10.9348 16.6778 10.2791 16.8107 9.57903 16.8107C8.87432 16.8107 8.21628 16.6778 7.6049 16.4122C6.99353 16.1512 6.45683 15.7859 5.9948 15.3162C5.53277 14.8418 5.17108 14.2938 4.90973 13.6723C4.64837 13.0461 4.5177 12.3748 4.5177 11.6584C4.5177 10.9467 4.64837 10.2802 4.90973 9.65867C5.17108 9.03717 5.53277 8.49158 5.9948 8.0219C6.45683 7.55221 6.99353 7.18453 7.6049 6.91885C8.21628 6.65317 8.87432 6.52033 9.57903 6.52033C9.84505 6.52033 10.0994 6.53219 10.3421 6.55591C10.5894 6.57963 10.8158 6.61522 11.0211 6.66266L8.92799 8.76912C8.87666 8.82605 8.83699 8.8901 8.80898 8.96126C8.78098 9.02768 8.76698 9.09885 8.76698 9.17476C8.76698 9.33606 8.82065 9.47127 8.92799 9.58039C9.03533 9.68951 9.16601 9.74407 9.32002 9.74407C9.4927 9.74407 9.62804 9.68951 9.72604 9.58039L12.6102 6.63419C12.6709 6.57252 12.7152 6.5061 12.7432 6.43493C12.7712 6.36377 12.7852 6.28786 12.7852 6.20721C12.7852 6.0459 12.7269 5.90357 12.6102 5.78022L9.72604 2.80556C9.62337 2.6917 9.48803 2.63477 9.32002 2.63477C9.16134 2.63477 9.02833 2.6917 8.92099 2.80556C8.81832 2.91468 8.76698 3.05226 8.76698 3.21831C8.76698 3.28948 8.77865 3.36064 8.80198 3.4318C8.82999 3.50297 8.86965 3.56702 8.92099 3.62395L10.7831 5.49557C10.6011 5.45761 10.4074 5.42915 10.2021 5.41017C10.0014 5.38645 9.79372 5.37459 9.57903 5.37459C8.72031 5.37459 7.91526 5.53827 7.16387 5.86562C6.41716 6.18823 5.76145 6.63657 5.19674 7.21062C4.63204 7.78468 4.18868 8.45363 3.86666 9.21745C3.5493 9.97654 3.39062 10.7902 3.39062 11.6584Z"
        fill="#3D4767" />
</svg>