<svg width="24" height="21" viewBox="0 0 24 21" fill="none" xmlns="http://www.w3.org/2000/svg">
    <path
        d="M21.7006 6.74582C21.7006 8.80547 20.0786 10.4532 18.1044 10.4532C16.1303 10.4532 14.5082 8.80547 14.5082 6.74582C14.5082 4.68617 16.1303 3.03848 18.1044 3.03848C20.0786 3.03848 21.7006 4.68617 21.7006 6.74582Z"
        fill="currentColor" stroke="currentColor" stroke-width="0.95" />
    <path
        d="M12.4012 3.03557C12.4012 4.47504 11.2684 5.62114 9.89631 5.62114C8.52424 5.62114 7.39141 4.47504 7.39141 3.03557C7.39141 1.5961 8.52424 0.45 9.89631 0.45C11.2684 0.45 12.4012 1.5961 12.4012 3.03557Z"
        fill="currentColor" stroke="currentColor" stroke-width="0.9" />
    <path
        d="M4.56036 17.684V9.71387H7.46583C7.57386 9.71387 7.68207 9.72223 7.79045 9.73895C7.89848 9.75566 8.00669 9.78625 8.11507 9.83072L15.1918 12.4818C15.6679 12.6596 16.0709 12.9403 16.4009 13.3237C16.7309 13.7074 16.8959 14.1548 16.8959 14.6662C16.8959 14.7773 16.8607 14.8745 16.7904 14.9578C16.7201 15.0412 16.6254 15.0829 16.5063 15.0829H15.7597C15.1428 15.0829 14.5314 15.0468 13.9255 14.9746C13.3195 14.9024 12.7298 14.7606 12.1564 14.5493L9.59195 13.6657L9.21877 14.516L11.8479 15.4332C12.4539 15.6555 13.068 15.8 13.6902 15.8667C14.3124 15.9334 14.9482 15.9668 15.5974 15.9668H20.9861C21.6137 15.9668 22.1439 16.1751 22.5767 16.5918C23.0095 17.0087 23.2259 17.5284 23.2259 18.1509L14.656 20.7521L4.56036 17.684ZM0.324219 19.1514V9.71387H3.73245V19.1514H0.324219Z"
        fill="currentColor" />
</svg>
    