<svg width="24" height="21" viewBox="0 0 24 21" fill="none" xmlns="http://www.w3.org/2000/svg">
<path d="M4.8646 16.3472L14.9029 19.336L22.6508 16.9481C22.6726 16.4716 22.5827 16.1441 22.381 15.9655C22.1795 15.7868 21.9284 15.6975 21.6276 15.6975H15.6462C15.0966 15.6975 14.5836 15.6759 14.1071 15.6325C13.6306 15.5892 13.1487 15.4809 12.6613 15.3077L9.89999 14.4142L10.241 13.5859L12.8859 14.5605C13.3209 14.7337 13.8037 14.8284 14.3343 14.8446C14.865 14.8608 15.5473 14.869 16.3812 14.869H16.4134C16.4243 14.869 16.4324 14.869 16.4378 14.869C16.4434 14.869 16.4515 14.869 16.4622 14.869C16.4622 14.4176 16.3864 14.0589 16.2348 13.7928C16.0832 13.5266 15.8558 13.3386 15.5526 13.2285L8.16184 10.5322C8.09704 10.5105 8.03753 10.4942 7.9833 10.4833C7.92907 10.4726 7.86955 10.4672 7.80475 10.4672H4.8646V16.3472ZM0.625 18.8323V9.63867H7.77123C7.87501 9.63867 7.98338 9.65167 8.09635 9.67765C8.20932 9.70364 8.32228 9.72816 8.43525 9.7512L15.845 12.465C16.2239 12.6058 16.5596 12.8604 16.8521 13.2285C17.1445 13.5967 17.2908 14.1435 17.2908 14.869H21.6276C22.2936 14.869 22.7741 15.0694 23.0692 15.4701C23.3643 15.8707 23.5118 16.385 23.5118 17.0131V17.5978L14.984 20.2292L4.8646 17.2405V18.8323H0.625ZM1.45353 18.004H4.03633V10.4672H1.45353V18.004Z" fill="#3D4767"/>
<circle cx="18.3822" cy="6.57753" r="3.60253" stroke="#3D4767" stroke-width="0.95"/>
<circle cx="10.1607" cy="2.9595" r="2.5095" stroke="#3D4767" stroke-width="0.9"/>
</svg>
