<svg width="24" height="21" viewBox="0 0 24 21" fill="none" xmlns="http://www.w3.org/2000/svg">
<path d="M21.9506 6.74484C21.9506 8.80449 20.3286 10.4522 18.3544 10.4522C16.3803 10.4522 14.7582 8.80449 14.7582 6.74484C14.7582 4.68519 16.3803 3.0375 18.3544 3.0375C20.3286 3.0375 21.9506 4.68519 21.9506 6.74484Z" fill="#7700D5" stroke="#7700D5" stroke-width="0.95"/>
<path d="M12.6512 3.03557C12.6512 4.47504 11.5184 5.62114 10.1463 5.62114C8.77424 5.62114 7.64141 4.47504 7.64141 3.03557C7.64141 1.5961 8.77424 0.45 10.1463 0.45C11.5184 0.45 12.6512 1.5961 12.6512 3.03557Z" fill="#7700D5" stroke="#7700D5" stroke-width="0.9"/>
<path d="M4.81036 17.6831V9.71289H7.71583C7.82386 9.71289 7.93207 9.72125 8.04045 9.73797C8.14848 9.75469 8.25669 9.78528 8.36507 9.82974L15.4418 12.4808C15.9179 12.6586 16.3209 12.9393 16.6509 13.3227C16.9809 13.7064 17.1459 14.1539 17.1459 14.6652C17.1459 14.7764 17.1107 14.8736 17.0404 14.9568C16.9701 15.0402 16.8754 15.0819 16.7563 15.0819H16.0097C15.3928 15.0819 14.7814 15.0458 14.1755 14.9736C13.5695 14.9014 12.9798 14.7596 12.4064 14.5484L9.84195 13.6648L9.46877 14.515L12.0979 15.4322C12.7039 15.6545 13.318 15.799 13.9402 15.8657C14.5624 15.9324 15.1982 15.9658 15.8474 15.9658H21.2361C21.8637 15.9658 22.3939 16.1741 22.8267 16.5909C23.2595 17.0078 23.4759 17.5274 23.4759 18.1499L14.906 20.7511L4.81036 17.6831ZM0.574219 19.1504V9.71289H3.98245V19.1504H0.574219Z" fill="#7700D5"/>
</svg>
