<svg xmlns="http://www.w3.org/2000/svg" width="16" height="16" viewBox="0 0 16 16" fill="none">
    <g clip-path="url(#clip0_270_10495)">
        <path fill-rule="evenodd" clip-rule="evenodd"
            d="M1.28985 7.32114C1.28985 10.2399 3.62507 12.6061 6.50571 12.6061C9.38635 12.6061 11.7216 10.2399 11.7216 7.32114C11.7216 4.40234 9.38635 2.03617 6.50571 2.03617C3.62507 2.03617 1.28985 4.40234 1.28985 7.32114ZM6.50571 13.8181C2.96448 13.8181 0.09375 10.9093 0.09375 7.32114C0.09375 3.73299 2.96448 0.824219 6.50571 0.824219C10.0469 0.824219 12.9177 3.73299 12.9177 7.32114C12.9177 8.75461 12.4595 10.0796 11.6834 11.1541L14.87 13.7457C15.1276 13.9552 15.1688 14.3365 14.9621 14.5975C14.7553 14.8585 14.3789 14.9003 14.1213 14.6908L10.9107 12.0798C10.9036 12.0739 10.8967 12.068 10.89 12.062C9.74332 13.1511 8.20136 13.8181 6.50571 13.8181Z"
            fill="#7700D5" />
    </g>
    <defs>
        <clipPath id="clip0_270_10495">
            <rect width="15" height="15.5753" fill="white" transform="translate(0.09375 0.209961)" />
        </clipPath>
    </defs>
</svg>