<svg width="17" height="16" viewBox="0 0 17 16" fill="none" xmlns="http://www.w3.org/2000/svg">
<path d="M16.4346 3.66513C16.4346 3.81741 16.3906 3.94869 16.3027 4.05896C16.2147 4.16398 16.0957 4.23225 15.9457 4.26376L12.3764 5.0593C12.2057 5.09606 12.0996 5.14332 12.0582 5.20108C12.0169 5.25884 11.9962 5.37962 11.9962 5.56341V12.7784C11.9962 13.3403 11.903 13.826 11.7168 14.2356C11.5358 14.6452 11.2952 14.9787 10.9952 15.236C10.7003 15.4933 10.3822 15.6849 10.0408 15.811C9.69936 15.937 9.37088 16 9.05533 16C8.37767 16 7.82416 15.8005 7.3948 15.4014C6.96545 15.0023 6.75077 14.4851 6.75077 13.8497C6.75077 13.23 6.94475 12.7154 7.33273 12.3058C7.72587 11.8963 8.32076 11.6048 9.1174 11.4315L10.3589 11.1716C10.6745 11.1033 10.8167 10.8907 10.7857 10.5336L10.7702 1.81411C10.7702 1.33101 11.0495 1.02907 11.6082 0.908293L15.6043 0.0182289C15.8319 -0.0290312 16.0259 0.0156033 16.1863 0.152132C16.3518 0.288661 16.4346 0.475076 16.4346 0.711376V3.66513ZM1.00101 4.02746C0.845821 4.02746 0.711324 3.97232 0.597519 3.86205C0.488887 3.74652 0.43457 3.60999 0.43457 3.45246C0.43457 3.30018 0.488887 3.1689 0.597519 3.05862C0.711324 2.94835 0.845821 2.89321 1.00101 2.89321H7.87589C8.03108 2.89321 8.16299 2.94835 8.27162 3.05862C8.38543 3.1689 8.44233 3.30018 8.44233 3.45246C8.44233 3.60999 8.38543 3.74652 8.27162 3.86205C8.16299 3.97232 8.03108 4.02746 7.87589 4.02746H1.00101ZM1.00101 6.83155C0.840649 6.83155 0.706151 6.77641 0.597519 6.66614C0.488887 6.55062 0.43457 6.41409 0.43457 6.25655C0.43457 6.09902 0.488887 5.96774 0.597519 5.86272C0.711324 5.75245 0.845821 5.69731 1.00101 5.69731H7.87589C8.03108 5.69731 8.16299 5.75245 8.27162 5.86272C8.38543 5.96774 8.44233 6.09902 8.44233 6.25655C8.44233 6.41409 8.38801 6.55062 8.27938 6.66614C8.17075 6.77641 8.03625 6.83155 7.87589 6.83155H1.00101ZM1.00101 9.63565C0.840649 9.63565 0.706151 9.58051 0.597519 9.47024C0.488887 9.35996 0.43457 9.22606 0.43457 9.06853C0.43457 8.91099 0.488887 8.77709 0.597519 8.66682C0.711324 8.55654 0.845821 8.50141 1.00101 8.50141H7.87589C8.03108 8.50141 8.16299 8.55654 8.27162 8.66682C8.38543 8.77709 8.44233 8.91099 8.44233 9.06853C8.44233 9.22606 8.38801 9.35996 8.27938 9.47024C8.17075 9.58051 8.03625 9.63565 7.87589 9.63565H1.00101Z" fill="#F251BC"/>
</svg>
